<?xml version="1.0" encoding="UTF-8"?>
<!--Generator: Apple Native CoreSVG 341-->
<!DOCTYPE svg
PUBLIC "-//W3C//DTD SVG 1.1//EN"
       "http://www.w3.org/Graphics/SVG/1.1/DTD/svg11.dtd">
<svg version="1.1" xmlns="http://www.w3.org/2000/svg" xmlns:xlink="http://www.w3.org/1999/xlink" viewBox="0 0 20.2832 19.9316">
 <g>
  <rect height="19.9316" opacity="0" width="20.2832" x="0" y="0"/>
  <path d="M9.96094 19.9219C15.459 19.9219 19.9219 15.459 19.9219 9.96094C19.9219 4.46289 15.459 0 9.96094 0C4.46289 0 0 4.46289 0 9.96094C0 15.459 4.46289 19.9219 9.96094 19.9219ZM9.96094 18.2617C5.37109 18.2617 1.66016 14.5508 1.66016 9.96094C1.66016 5.37109 5.37109 1.66016 9.96094 1.66016C14.5508 1.66016 18.2617 5.37109 18.2617 9.96094C18.2617 14.5508 14.5508 18.2617 9.96094 18.2617Z" fill="black" fill-opacity="0.85"/>
  <path d="M6.95312 14.6191C7.34375 14.6191 7.67578 14.3066 7.67578 13.9062L7.67578 9.96094C7.67578 9.10156 8.21289 8.56445 9.0625 8.56445L12.627 8.56445C13.0176 8.56445 13.3496 8.25195 13.3496 7.85156C13.3496 7.46094 13.0176 7.12891 12.627 7.12891L9.04297 7.12891C7.32422 7.12891 6.24023 8.21289 6.24023 9.92188L6.24023 13.9062C6.24023 14.3066 6.5625 14.6191 6.95312 14.6191ZM11.7578 6.07422L11.7578 9.63867C11.7578 10.1953 12.1484 10.3516 12.5781 10.0391L15.0586 8.31055C15.4199 8.05664 15.4297 7.67578 15.0586 7.41211L12.5879 5.67383C12.1484 5.35156 11.7578 5.50781 11.7578 6.07422Z" fill="black" fill-opacity="0.85"/>
 </g>
</svg>
