<?xml version="1.0" encoding="UTF-8"?>
<!--Generator: Apple Native CoreSVG 341-->
<!DOCTYPE svg
PUBLIC "-//W3C//DTD SVG 1.1//EN"
       "http://www.w3.org/Graphics/SVG/1.1/DTD/svg11.dtd">
<svg version="1.1" xmlns="http://www.w3.org/2000/svg" xmlns:xlink="http://www.w3.org/1999/xlink" viewBox="0 0 22.5124 22.1608">
 <g>
  <rect height="22.1608" opacity="0" width="22.5124" x="0" y="0"/>
  <path d="M13.2435 1.09505L21.056 8.90755C22.5013 10.3529 22.5111 11.7884 21.0853 13.2142L13.224 21.0853C11.7884 22.5111 10.3626 22.5013 8.91731 21.056L1.09505 13.2337C-0.350264 11.7884-0.369795 10.3626 1.06575 8.92708L8.93685 1.06575C10.3724-0.369795 11.7982-0.350264 13.2435 1.09505ZM12.931 7.07161L12.931 8.1556L10.1478 8.1556C8.37044 8.1556 7.24739 9.26888 7.24739 11.0365L7.24739 15.138C7.24739 15.5579 7.57942 15.8802 7.98958 15.8802C8.38997 15.8802 8.73177 15.5579 8.73177 15.138L8.73177 11.0755C8.73177 10.1966 9.27864 9.63997 10.1575 9.63997L12.931 9.63997L12.931 10.7533C12.931 11.3294 13.3411 11.4857 13.7708 11.1634L16.349 9.3763C16.72 9.11263 16.7298 8.722 16.349 8.44856L13.7806 6.65169C13.3411 6.31966 12.931 6.48567 12.931 7.07161Z" fill="black" fill-opacity="0.85"/>
 </g>
</svg>
