<?xml version="1.0" encoding="UTF-8"?>
<!--Generator: Apple Native CoreSVG 341-->
<!DOCTYPE svg
PUBLIC "-//W3C//DTD SVG 1.1//EN"
       "http://www.w3.org/Graphics/SVG/1.1/DTD/svg11.dtd">
<svg version="1.1" xmlns="http://www.w3.org/2000/svg" xmlns:xlink="http://www.w3.org/1999/xlink" viewBox="0 0 16.7578 22.666">
 <g>
  <rect height="22.666" opacity="0" width="16.7578" x="0" y="0"/>
  <path d="M14.7266 22.666C15.6445 22.666 16.3965 21.9238 16.3965 20.9961C16.3965 20.0781 15.6445 19.3359 14.7266 19.3359C13.8086 19.3359 13.0664 20.0781 13.0664 20.9961C13.0664 21.9238 13.8086 22.666 14.7266 22.666Z" fill="black" fill-opacity="0.85"/>
  <path d="M8.19336 22.666C9.12109 22.666 9.86328 21.9238 9.86328 20.9961C9.86328 20.0781 9.12109 19.3359 8.19336 19.3359C7.27539 19.3359 6.5332 20.0781 6.5332 20.9961C6.5332 21.9238 7.27539 22.666 8.19336 22.666Z" fill="black" fill-opacity="0.85"/>
  <path d="M1.66016 22.666C2.59766 22.666 3.33984 21.9238 3.33984 20.9961C3.33984 20.0781 2.59766 19.3359 1.66016 19.3359C0.742188 19.3359 0 20.0781 0 20.9961C0 21.9238 0.742188 22.666 1.66016 22.666Z" fill="black" fill-opacity="0.85"/>
  <path d="M3.10547 4.12109L12.9492 4.12109C12.3145 3.17383 11.6406 2.22656 10.9082 1.25977C10.3906 0.566406 10.0391 0.175781 9.08203 0.175781L6.97266 0.175781C6.02539 0.175781 5.68359 0.566406 5.14648 1.25977C4.42383 2.22656 3.74023 3.17383 3.10547 4.12109ZM0.224609 10.2148L5.9082 10.2148C6.21094 9.3457 7.03125 8.7207 8.03711 8.7207C9.02344 8.7207 9.84375 9.3457 10.1562 10.2148L15.8301 10.2148C15.6055 8.87695 14.9219 7.32422 13.9453 5.66406L2.11914 5.66406C1.13281 7.32422 0.449219 8.87695 0.224609 10.2148ZM8.03711 11.9238C8.57422 11.9238 8.97461 11.5234 8.97461 10.9766C8.97461 10.4395 8.57422 10.0488 8.03711 10.0488C7.48047 10.0488 7.08984 10.4395 7.08984 10.9766C7.08984 11.5234 7.48047 11.9238 8.03711 11.9238ZM5.9082 16.6016L10.1465 16.6016C13.7305 16.6016 15.6641 14.8145 15.8984 11.7676L10.1465 11.7676C9.84375 12.627 9.01367 13.2422 8.03711 13.2422C7.03125 13.2422 6.2207 12.627 5.91797 11.7676L0.15625 11.7676C0.390625 14.8145 2.32422 16.6016 5.9082 16.6016Z" fill="black" fill-opacity="0.85"/>
 </g>
</svg>
