<?xml version="1.0" encoding="UTF-8"?>
<!--Generator: Apple Native CoreSVG 341-->
<!DOCTYPE svg
PUBLIC "-//W3C//DTD SVG 1.1//EN"
       "http://www.w3.org/Graphics/SVG/1.1/DTD/svg11.dtd">
<svg version="1.1" xmlns="http://www.w3.org/2000/svg" xmlns:xlink="http://www.w3.org/1999/xlink" viewBox="0 0 22.1973 18.7988">
 <g>
  <rect height="18.7988" opacity="0" width="22.1973" x="0" y="0"/>
  <path d="M1.68945 18.7598L20.1465 18.7598C21.2109 18.7598 21.8359 18.1348 21.8359 17.0312L21.8359 14.9512C21.8359 13.8477 21.2109 13.2227 20.1465 13.2227L1.68945 13.2227C0.625 13.2227 0 13.8477 0 14.9512L0 17.0312C0 18.1348 0.625 18.7598 1.68945 18.7598Z" fill="black" fill-opacity="0.85"/>
  <path d="M1.68945 12.1484L20.1465 12.1484C21.2109 12.1484 21.8359 11.5332 21.8359 10.4297L21.8359 8.33984C21.8359 7.23633 21.2109 6.61133 20.1465 6.61133L1.68945 6.61133C0.625 6.61133 0 7.23633 0 8.33984L0 10.4297C0 11.5332 0.625 12.1484 1.68945 12.1484Z" fill="black" fill-opacity="0.85"/>
  <path d="M1.68945 5.53711L20.1465 5.53711C21.2109 5.53711 21.8359 4.91211 21.8359 3.80859L21.8359 1.72852C21.8359 0.625 21.2109 0 20.1465 0L1.68945 0C0.625 0 0 0.625 0 1.72852L0 3.80859C0 4.91211 0.625 5.53711 1.68945 5.53711Z" fill="black" fill-opacity="0.85"/>
 </g>
</svg>
