<?xml version="1.0" encoding="UTF-8"?>
<!--Generator: Apple Native CoreSVG 341-->
<!DOCTYPE svg
PUBLIC "-//W3C//DTD SVG 1.1//EN"
       "http://www.w3.org/Graphics/SVG/1.1/DTD/svg11.dtd">
<svg version="1.1" xmlns="http://www.w3.org/2000/svg" xmlns:xlink="http://www.w3.org/1999/xlink" viewBox="0 0 16.7871 27.0605">
 <g>
  <rect height="27.0605" opacity="0" width="16.7871" x="0" y="0"/>
  <path d="M16.4258 6.91406L16.4258 21.7285C16.4258 23.7793 15.4199 24.7949 13.3984 24.7949L3.02734 24.7949C1.00586 24.7949 0 23.7793 0 21.7285L0 6.91406C0 4.86328 1.00586 3.84766 3.02734 3.84766L3.15794 3.84766C3.14873 3.93003 3.14453 4.01489 3.14453 4.10156L3.14453 5.12695C3.14453 6.35742 4.00391 7.22656 5.19531 7.22656L11.2305 7.22656C12.4219 7.22656 13.2812 6.35742 13.2812 5.12695L13.2812 4.10156C13.2812 4.01489 13.2771 3.93003 13.2678 3.84766L13.3984 3.84766C15.4199 3.84766 16.4258 4.86328 16.4258 6.91406ZM3.76953 20.0391C3.41797 20.0391 3.13477 20.3223 3.13477 20.6738C3.13477 21.0156 3.42773 21.2988 3.76953 21.2988L8.84766 21.2988C9.18945 21.2988 9.47266 21.0156 9.47266 20.6738C9.47266 20.3223 9.19922 20.0391 8.84766 20.0391ZM3.76953 16.2793C3.41797 16.2793 3.13477 16.5527 3.13477 16.8945C3.13477 17.2461 3.41797 17.5293 3.76953 17.5293L12.6562 17.5293C13.0078 17.5293 13.291 17.2461 13.291 16.8945C13.291 16.5527 13.0078 16.2793 12.6562 16.2793ZM5.92773 8.91602C5.77148 9.94141 5.63477 10.4883 5.27344 10.8301C4.93164 11.1816 4.38477 11.3184 3.35938 11.4844C3.24219 11.5039 3.1543 11.6113 3.1543 11.7285C3.1543 11.8457 3.24219 11.9531 3.35938 11.9727C4.38477 12.1387 4.93164 12.2754 5.27344 12.6172C5.63477 12.9688 5.77148 13.5254 5.92773 14.541C5.94727 14.668 6.05469 14.7461 6.18164 14.7461C6.29883 14.7461 6.40625 14.668 6.42578 14.541C6.58203 13.5254 6.71875 12.9688 7.07031 12.6172C7.41211 12.2754 7.95898 12.1387 8.98438 11.9727C9.11133 11.9531 9.19922 11.8457 9.19922 11.7285C9.19922 11.6113 9.11133 11.5039 8.98438 11.4844C7.95898 11.3184 7.41211 11.1816 7.07031 10.8301C6.71875 10.4883 6.58203 9.94141 6.42578 8.91602C6.40625 8.79883 6.29883 8.71094 6.18164 8.71094C6.05469 8.71094 5.94727 8.79883 5.92773 8.91602Z" fill="black" fill-opacity="0.85"/>
  <path d="M10.332 3.13477L11.2305 3.13477C11.7969 3.13477 12.1387 3.49609 12.1387 4.10156L12.1387 5.12695C12.1387 5.73242 11.7969 6.09375 11.2305 6.09375L5.19531 6.09375C4.62891 6.09375 4.28711 5.73242 4.28711 5.12695L4.28711 4.10156C4.28711 3.49609 4.62891 3.13477 5.19531 3.13477L6.09375 3.13477C6.16211 2.03125 7.08008 1.13281 8.21289 1.13281C9.3457 1.13281 10.2637 2.03125 10.332 3.13477ZM7.36328 3.21289C7.36328 3.67188 7.74414 4.0625 8.21289 4.0625C8.68164 4.0625 9.0625 3.67188 9.0625 3.21289C9.0625 2.73438 8.68164 2.35352 8.21289 2.35352C7.74414 2.35352 7.36328 2.73438 7.36328 3.21289Z" fill="black" fill-opacity="0.85"/>
 </g>
</svg>
