<?xml version="1.0" encoding="UTF-8"?>
<!--Generator: Apple Native CoreSVG 341-->
<!DOCTYPE svg
PUBLIC "-//W3C//DTD SVG 1.1//EN"
       "http://www.w3.org/Graphics/SVG/1.1/DTD/svg11.dtd">
<svg version="1.1" xmlns="http://www.w3.org/2000/svg" xmlns:xlink="http://www.w3.org/1999/xlink" viewBox="0 0 22.5124 22.1608">
 <g>
  <rect height="22.1608" opacity="0" width="22.5124" x="0" y="0"/>
  <path d="M1.09505 13.2337L8.91731 21.056C10.3626 22.5013 11.7884 22.5111 13.224 21.0853L21.0853 13.2142C22.5111 11.7884 22.5013 10.3529 21.056 8.90755L13.2435 1.09505C11.7982-0.350264 10.3724-0.369795 8.93685 1.06575L1.06575 8.92708C-0.369795 10.3626-0.350264 11.7884 1.09505 13.2337ZM2.22786 12.1497C1.52474 11.4466 1.51497 10.7142 2.23763 9.99153L9.99153 2.23763C10.7142 1.51497 11.4466 1.52474 12.1497 2.22786L19.9232 10.0013C20.6165 10.6947 20.6361 11.4368 19.9134 12.1595L12.1595 19.9134C11.4368 20.6361 10.6849 20.6165 10.0013 19.9329Z" fill="black" fill-opacity="0.85"/>
  <path d="M8.07747 15.7337C8.4681 15.7337 8.80013 15.4212 8.80013 15.0208L8.80013 11.0755C8.80013 10.2161 9.32747 9.67903 10.1771 9.67903L13.7513 9.67903C14.1419 9.67903 14.4642 9.36653 14.4642 8.96614C14.4642 8.57552 14.1419 8.24349 13.7513 8.24349L10.1673 8.24349C8.44856 8.24349 7.36458 9.32747 7.36458 11.0365L7.36458 15.0208C7.36458 15.4212 7.68685 15.7337 8.07747 15.7337ZM12.8822 7.1888L12.8822 10.7533C12.8822 11.3099 13.2728 11.4661 13.6927 11.1536L16.1829 9.42513C16.5443 9.17122 16.554 8.79036 16.1829 8.52669L13.7025 6.78841C13.2728 6.46614 12.8822 6.62239 12.8822 7.1888Z" fill="black" fill-opacity="0.85"/>
 </g>
</svg>
