<?xml version="1.0" encoding="UTF-8"?>
<!--Generator: Apple Native CoreSVG 341-->
<!DOCTYPE svg
PUBLIC "-//W3C//DTD SVG 1.1//EN"
       "http://www.w3.org/Graphics/SVG/1.1/DTD/svg11.dtd">
<svg version="1.1" xmlns="http://www.w3.org/2000/svg" xmlns:xlink="http://www.w3.org/1999/xlink" viewBox="0 0 20.2832 19.9316">
 <g>
  <rect height="19.9316" opacity="0" width="20.2832" x="0" y="0"/>
  <path d="M19.9219 9.96094C19.9219 15.4492 15.459 19.9219 9.96094 19.9219C4.47266 19.9219 0 15.4492 0 9.96094C0 4.46289 4.47266 0 9.96094 0C15.459 0 19.9219 4.46289 19.9219 9.96094ZM11.8164 5.95703L11.8164 7.04102L9.0332 7.04102C7.25586 7.04102 6.13281 8.1543 6.13281 9.92188L6.13281 14.0234C6.13281 14.4434 6.46484 14.7656 6.875 14.7656C7.27539 14.7656 7.61719 14.4434 7.61719 14.0234L7.61719 9.96094C7.61719 9.08203 8.17383 8.52539 9.05273 8.52539L11.8164 8.52539L11.8164 9.63867C11.8164 10.2148 12.2266 10.3711 12.666 10.0488L15.2344 8.26172C15.6055 7.99805 15.6152 7.60742 15.2344 7.33398L12.6758 5.53711C12.2266 5.20508 11.8164 5.37109 11.8164 5.95703Z" fill="black" fill-opacity="0.85"/>
 </g>
</svg>
