<?xml version="1.0" encoding="UTF-8"?>
<!--Generator: Apple Native CoreSVG 341-->
<!DOCTYPE svg
PUBLIC "-//W3C//DTD SVG 1.1//EN"
       "http://www.w3.org/Graphics/SVG/1.1/DTD/svg11.dtd">
<svg version="1.1" xmlns="http://www.w3.org/2000/svg" xmlns:xlink="http://www.w3.org/1999/xlink" viewBox="0 0 20.0195 21.8262">
 <g>
  <rect height="21.8262" opacity="0" width="20.0195" x="0" y="0"/>
  <path d="M10.3223 21.709C11.6602 21.709 12.5781 20.7129 12.5781 19.1992C12.5781 17.7148 11.6992 16.6992 10.2832 16.6992C9.24805 16.709 7.79297 17.1484 6.98242 18.3301C4.60938 18.2324 1.52344 17.4707 1.52344 15.6055C1.54297 14.3848 2.40234 13.584 5.3125 12.8516C6.44531 13.9453 8.68164 14.6973 10.3223 14.6973C10.8203 14.6973 11.1621 14.3555 11.1621 13.7402L11.1621 6.37695C11.1621 5.41992 10.918 5.13672 10.0781 5C7.19727 4.55078 6.2207 3.80859 6.20117 3.25195C6.20117 2.42188 8.60352 1.34766 12.2363 1.34766C15.8691 1.34766 18.2715 2.42188 18.2715 3.25195C18.2617 3.80859 17.2852 4.55078 14.3945 5C13.5547 5.13672 13.3105 5.41992 13.3105 6.37695L13.3105 13.7402C13.3105 14.3555 13.6523 14.6973 14.1504 14.6973C15.7715 14.6973 18.0078 13.9453 19.248 12.793C19.5703 12.4902 19.6582 12.2949 19.6582 11.5625L19.6582 3.42773C19.6582 1.32812 16.9043 0 12.2363 0C7.56836 0 4.82422 1.32812 4.82422 3.42773L4.82422 11.3965C1.46484 12.2559 0 13.457 0 15.5566C0 18.2715 2.98828 19.4531 6.875 19.8535C7.35352 20.791 8.66211 21.709 10.3223 21.709Z" fill="black" fill-opacity="0.85"/>
 </g>
</svg>
