<?xml version="1.0" encoding="UTF-8"?>
<!--Generator: Apple Native CoreSVG 341-->
<!DOCTYPE svg
PUBLIC "-//W3C//DTD SVG 1.1//EN"
       "http://www.w3.org/Graphics/SVG/1.1/DTD/svg11.dtd">
<svg version="1.1" xmlns="http://www.w3.org/2000/svg" xmlns:xlink="http://www.w3.org/1999/xlink" viewBox="0 0 19.2334 18.3887">
 <g>
  <rect height="18.3887" opacity="0" width="19.2334" x="0" y="0"/>
  <path d="M9.90813 11.7507L9.59717 14.0039C9.25537 16.5528 7.79053 17.8223 5.57373 17.8223C4.44092 17.8223 3.28857 17.627 3.28857 16.8653C3.28857 16.4063 3.59131 16.1426 4.01123 16.1426C4.43115 16.1426 4.71436 16.2696 5.69092 16.2696C7.03857 16.2696 7.80029 15.5274 8.04443 13.7305L8.50673 10.3502ZM7.66769 9.51174L5.07568 9.51174C4.60693 9.51174 4.25537 9.18948 4.25537 8.74026C4.25537 8.28127 4.59717 7.95901 5.05615 7.95901L6.11391 7.95901ZM15.3882 8.74026C15.3882 9.18948 15.0464 9.51174 14.5874 9.51174L13.0347 9.51174L11.4819 7.95901L14.5679 7.95901C15.0366 7.95901 15.3882 8.29104 15.3882 8.74026ZM15.5835 1.94338C15.5835 2.40237 15.2808 2.66604 14.8608 2.66604C14.4604 2.66604 14.1577 2.53909 13.1812 2.53909C11.8335 2.53909 11.0718 3.29104 10.8276 5.08791L10.5588 7.03588L9.15235 5.62942L9.26514 4.80471C9.6167 2.25588 11.0815 0.986352 13.2983 0.986352C14.4312 0.986352 15.5835 1.19143 15.5835 1.94338Z" fill="black" fill-opacity="0.85"/>
  <path d="M16.8042 17.0313C17.0874 17.3145 17.5854 17.3242 17.8687 17.0313C18.1616 16.7285 18.1616 16.2598 17.8687 15.9668L3.46436 1.56252C3.17139 1.26956 2.69287 1.26956 2.39014 1.56252C2.10693 1.84573 2.10693 2.34377 2.39014 2.62698Z" fill="black" fill-opacity="0.85"/>
 </g>
</svg>
