<?xml version="1.0" encoding="UTF-8"?>
<!--Generator: Apple Native CoreSVG 341-->
<!DOCTYPE svg
PUBLIC "-//W3C//DTD SVG 1.1//EN"
       "http://www.w3.org/Graphics/SVG/1.1/DTD/svg11.dtd">
<svg version="1.1" xmlns="http://www.w3.org/2000/svg" xmlns:xlink="http://www.w3.org/1999/xlink" viewBox="0 0 28.0078 23.8574">
 <g>
  <rect height="23.8574" opacity="0" width="28.0078" x="0" y="0"/>
  <path d="M10.9668 18.457C10.9668 20.9473 12.5293 23.0469 14.6289 23.0469L16.0156 23.0469C14.4922 21.9336 13.8574 20.2637 13.8672 18.3691C13.8672 16.25 14.6875 14.7363 15.4199 13.8184L14.3164 13.8184C12.4316 13.8184 10.9668 15.8496 10.9668 18.457ZM15.1367 18.3789C15.1367 21.4648 17.5488 23.8574 21.4746 23.8574L22.627 23.8574C23.7207 23.8574 24.5312 23.7793 24.9805 23.6523C25.6348 23.4863 26.2793 23.0859 26.2793 22.2949C26.2793 21.9629 26.2012 21.7285 26.0938 21.5527C26.0352 21.4453 26.0352 21.3574 26.1426 21.3086C26.6699 21.0938 27.1094 20.6055 27.1094 19.9414C27.1094 19.541 26.9922 19.2188 26.8066 18.9844C26.709 18.8477 26.7188 18.7402 26.875 18.6523C27.2461 18.4277 27.5195 17.9492 27.5195 17.4121C27.5195 17.0117 27.4023 16.5918 27.1777 16.3965C27.0312 16.2793 27.0605 16.1914 27.1973 16.0645C27.4609 15.8398 27.6465 15.4688 27.6465 14.9805C27.6465 14.1699 27.002 13.5059 26.1621 13.5059L23.1836 13.5059C22.4316 13.5059 21.9238 13.1152 21.9238 12.4902C21.9238 11.3672 23.3398 9.28711 23.3398 7.79297C23.3398 7.01172 22.8418 6.55273 22.1777 6.55273C21.5723 6.55273 21.2793 6.96289 20.957 7.59766C19.6973 10.0391 18.0176 12.0215 16.748 13.7207C15.6543 15.1465 15.1367 16.3965 15.1367 18.3789Z" fill="black" fill-opacity="0.85"/>
  <path d="M16.6797 5.41016C16.6797 2.91992 15.1172 0.820312 13.0176 0.820312L11.6309 0.820312C13.1543 1.92383 13.7891 3.60352 13.7793 5.49805C13.7695 7.60742 12.9492 9.13086 12.2168 10.0488L13.3301 10.0488C15.2148 10.0488 16.6797 8.01758 16.6797 5.41016ZM12.5098 5.48828C12.5098 2.39258 10.0977 0.00976562 6.17188 0.00976562L5.01953 0.00976562C3.92578 0.00976562 3.11523 0.0878906 2.65625 0.205078C2.00195 0.371094 1.36719 0.78125 1.36719 1.57227C1.36719 1.89453 1.44531 2.13867 1.55273 2.31445C1.62109 2.42188 1.60156 2.50977 1.49414 2.55859C0.976562 2.76367 0.537109 3.26172 0.537109 3.92578C0.537109 4.32617 0.654297 4.64844 0.839844 4.88281C0.9375 5.00977 0.917969 5.11719 0.761719 5.21484C0.400391 5.42969 0.117188 5.9082 0.117188 6.45508C0.117188 6.85547 0.244141 7.26562 0.46875 7.4707C0.605469 7.58789 0.585938 7.67578 0.449219 7.79297C0.185547 8.02734 0 8.39844 0 8.88672C0 9.6875 0.644531 10.3613 1.48438 10.3613L4.46289 10.3613C5.21484 10.3613 5.71289 10.752 5.71289 11.377C5.71289 12.5 4.29688 14.5801 4.29688 16.0742C4.29688 16.8555 4.80469 17.3145 5.46875 17.3145C6.07422 17.3145 6.36719 16.8945 6.69922 16.2695C7.94922 13.8184 9.62891 11.8359 10.8887 10.1367C11.9922 8.7207 12.5098 7.4707 12.5098 5.48828Z" fill="black" fill-opacity="0.85"/>
 </g>
</svg>
