<?xml version="1.0" encoding="UTF-8"?>
<!--Generator: Apple Native CoreSVG 341-->
<!DOCTYPE svg
PUBLIC "-//W3C//DTD SVG 1.1//EN"
       "http://www.w3.org/Graphics/SVG/1.1/DTD/svg11.dtd">
<svg version="1.1" xmlns="http://www.w3.org/2000/svg" xmlns:xlink="http://www.w3.org/1999/xlink" viewBox="0 0 16.3379 19.7168">
 <g>
  <rect height="19.7168" opacity="0" width="16.3379" x="0" y="0"/>
  <path d="M8.79883 0.439453C9.93164 0.830078 13.584 2.1582 14.7266 2.62695C15.5469 2.96875 15.9766 3.29102 15.9766 4.29688L15.9766 11.6602C15.9766 15.166 14.1895 16.6211 8.63281 19.5312C8.38867 19.6582 8.14453 19.7168 7.98828 19.7168C7.83203 19.7168 7.59766 19.668 7.34375 19.5312C1.88477 16.4551 0 15.166 0 11.6602L0 4.29688C0 3.29102 0.439453 2.95898 1.25 2.62695C2.39258 2.16797 6.04492 0.810547 7.1875 0.439453C7.44141 0.361328 7.71484 0.302734 7.98828 0.302734C8.26172 0.302734 8.53516 0.351562 8.79883 0.439453ZM6.5918 12.6855C6.5918 13.0664 6.85547 13.2715 7.54883 13.2715L13.0762 13.2715C13.7793 13.2715 14.0234 13.0664 14.0234 12.6855C14.0234 11.543 12.6074 9.98047 10.3223 9.98047C8.02734 9.98047 6.5918 11.543 6.5918 12.6855ZM2.00195 12.6465C2.00195 13.0469 2.2168 13.2715 2.77344 13.2715L6.12305 13.2715C5.67383 12.6074 6.23047 11.2598 7.17773 10.5371C6.67969 10.2051 6.05469 9.96094 5.24414 9.96094C3.25195 9.96094 2.00195 11.4258 2.00195 12.6465ZM3.70117 7.58789C3.70117 8.54492 4.41406 9.28711 5.24414 9.28711C6.06445 9.28711 6.77734 8.54492 6.77734 7.57812C6.77734 6.64062 6.05469 5.9375 5.24414 5.9375C4.42383 5.9375 3.70117 6.66016 3.70117 7.58789ZM8.55469 7.24609C8.56445 8.33984 9.36523 9.19922 10.3223 9.19922C11.2695 9.19922 12.0801 8.33984 12.0801 7.23633C12.0801 6.14258 11.2598 5.3418 10.3223 5.3418C9.375 5.3418 8.55469 6.17188 8.55469 7.24609Z" fill="black" fill-opacity="0.85"/>
 </g>
</svg>
