<?xml version="1.0" encoding="UTF-8"?>
<!--Generator: Apple Native CoreSVG 341-->
<!DOCTYPE svg
PUBLIC "-//W3C//DTD SVG 1.1//EN"
       "http://www.w3.org/Graphics/SVG/1.1/DTD/svg11.dtd">
<svg version="1.1" xmlns="http://www.w3.org/2000/svg" xmlns:xlink="http://www.w3.org/1999/xlink" viewBox="0 0 22.3535 20.2441">
 <g>
  <rect height="20.2441" opacity="0" width="22.3535" x="0" y="0"/>
  <path d="M17.5391 20.2441C18.457 20.2441 19.1992 19.502 19.1992 18.5742C19.1992 17.6562 18.457 16.9141 17.5391 16.9141C16.6113 16.9141 15.8691 17.6562 15.8691 18.5742C15.8691 19.502 16.6113 20.2441 17.5391 20.2441Z" fill="black" fill-opacity="0.85"/>
  <path d="M10.9961 20.2441C11.9238 20.2441 12.666 19.502 12.666 18.5742C12.666 17.6562 11.9238 16.9141 10.9961 16.9141C10.0781 16.9141 9.33594 17.6562 9.33594 18.5742C9.33594 19.502 10.0781 20.2441 10.9961 20.2441Z" fill="black" fill-opacity="0.85"/>
  <path d="M4.46289 20.2441C5.40039 20.2441 6.14258 19.502 6.14258 18.5742C6.14258 17.6562 5.40039 16.9141 4.46289 16.9141C3.54492 16.9141 2.80273 17.6562 2.80273 18.5742C2.80273 19.502 3.54492 20.2441 4.46289 20.2441Z" fill="black" fill-opacity="0.85"/>
  <path d="M10.9961 8.80859C16.1328 8.80859 21.8457 6.96289 21.8457 4.78516C21.8457 2.63672 16.9922 0.888672 10.9961 0.888672C5 0.888672 0.146484 2.63672 0.146484 4.78516C0.146484 6.96289 5.86914 8.80859 10.9961 8.80859ZM3.97461 13.6816C4.21875 13.7598 4.375 13.6328 4.375 13.3887L4.375 12.4707C4.375 12.0605 4.70703 11.8457 5.08789 11.9531C7.08984 12.5195 9.41406 12.6855 11.0645 12.6855C12.7344 12.6855 15.0488 12.5195 17.0508 11.9531C17.4316 11.8457 17.7637 12.0605 17.7637 12.4707L17.7637 13.3398C17.7637 13.5938 17.9199 13.7109 18.1641 13.6328C20.498 12.8223 21.9922 11.5527 21.9922 9.9707L21.9922 6.76758C20.4883 8.50586 15.9766 9.95117 10.9961 9.95117C6.11328 9.95117 1.50391 8.50586 0 6.76758L0 9.9707C0 11.5918 1.55273 12.8711 3.97461 13.6816ZM10.9961 4.93164C9.02344 4.93164 7.91992 4.41406 7.91992 3.64258C7.91992 2.89062 8.99414 2.35352 10.9961 2.35352C13.0078 2.35352 14.082 2.89062 14.082 3.64258C14.082 4.41406 12.9785 4.93164 10.9961 4.93164ZM10.9961 4.16016C12.2461 4.16016 12.8906 3.92578 12.8906 3.64258C12.8906 3.35938 12.2852 3.11523 10.9961 3.11523C9.70703 3.11523 9.0918 3.35938 9.0918 3.64258C9.0918 3.92578 9.74609 4.16016 10.9961 4.16016ZM7.55859 7.02148C6.99219 7.02148 6.52344 6.79688 6.52344 6.51367C6.52344 6.24023 6.99219 6.01562 7.55859 6.01562C8.125 6.01562 8.59375 6.24023 8.59375 6.51367C8.59375 6.79688 8.125 7.02148 7.55859 7.02148ZM10.9961 7.42188C10.4395 7.42188 9.9707 7.1875 9.9707 6.91406C9.9707 6.63086 10.4395 6.39648 10.9961 6.39648C11.5625 6.39648 12.0312 6.63086 12.0312 6.91406C12.0312 7.1875 11.5625 7.42188 10.9961 7.42188ZM14.4434 7.02148C13.877 7.02148 13.4082 6.79688 13.4082 6.51367C13.4082 6.24023 13.877 6.01562 14.4434 6.01562C15.0098 6.01562 15.4785 6.24023 15.4785 6.51367C15.4785 6.79688 15.0098 7.02148 14.4434 7.02148Z" fill="black" fill-opacity="0.85"/>
 </g>
</svg>
