<?xml version="1.0" encoding="UTF-8"?>
<!--Generator: Apple Native CoreSVG 341-->
<!DOCTYPE svg
PUBLIC "-//W3C//DTD SVG 1.1//EN"
       "http://www.w3.org/Graphics/SVG/1.1/DTD/svg11.dtd">
<svg version="1.1" xmlns="http://www.w3.org/2000/svg" xmlns:xlink="http://www.w3.org/1999/xlink" viewBox="0 0 18.6939 18.3573">
 <g>
  <rect height="18.3573" opacity="0" width="18.6939" x="0" y="0"/>
  <path d="M8.84126 11.3152L3.15064 17.0058C2.66236 17.5038 1.83228 17.5038 1.344 17.0058C0.845954 16.5077 0.85572 15.6874 1.344 15.1991L7.03521 9.50792ZM16.9983 1.37101C17.4768 1.85929 17.4866 2.67961 16.9885 3.16789L11.2973 8.8591L9.49127 7.05187L15.1819 1.36125C15.6702 0.872965 16.5003 0.872965 16.9983 1.37101Z" fill="black" fill-opacity="0.85"/>
  <path d="M15.9631 17.2694C16.3245 17.6308 16.9104 17.621 17.2522 17.2694C17.6135 16.9081 17.6233 16.3319 17.262 15.9706L2.37916 1.08781C2.01783 0.726481 1.44166 0.726481 1.08033 1.08781C0.738532 1.42961 0.709235 2.01554 1.08033 2.38664Z" fill="black" fill-opacity="0.85"/>
 </g>
</svg>
